<?xml version="1.0" encoding="utf-8"?>
<svg version="1.1" baseProfile="full"  width="1480" height="1480" viewBox="0 0 1480 1480"
		 xmlns="http://www.w3.org/2000/svg" xmlns:xlink="http://www.w3.org/1999/xlink" xmlns:ev="http://www.w3.org/2001/xml-events">
<desc></desc>
<rect width="1480" height="1480" fill="#ffffff" cx="0" cy="0" />
<defs>
<rect id="p" width="40" height="40" />
</defs>
<g fill="#000000">
<use x="80" y="80" xlink:href="#p" />
<use x="80" y="120" xlink:href="#p" />
<use x="80" y="160" xlink:href="#p" />
<use x="80" y="200" xlink:href="#p" />
<use x="80" y="240" xlink:href="#p" />
<use x="80" y="280" xlink:href="#p" />
<use x="80" y="320" xlink:href="#p" />
<use x="80" y="400" xlink:href="#p" />
<use x="80" y="640" xlink:href="#p" />
<use x="80" y="720" xlink:href="#p" />
<use x="80" y="800" xlink:href="#p" />
<use x="80" y="840" xlink:href="#p" />
<use x="80" y="960" xlink:href="#p" />
<use x="80" y="1000" xlink:href="#p" />
<use x="80" y="1120" xlink:href="#p" />
<use x="80" y="1160" xlink:href="#p" />
<use x="80" y="1200" xlink:href="#p" />
<use x="80" y="1240" xlink:href="#p" />
<use x="80" y="1280" xlink:href="#p" />
<use x="80" y="1320" xlink:href="#p" />
<use x="80" y="1360" xlink:href="#p" />
<use x="120" y="80" xlink:href="#p" />
<use x="120" y="320" xlink:href="#p" />
<use x="120" y="400" xlink:href="#p" />
<use x="120" y="440" xlink:href="#p" />
<use x="120" y="480" xlink:href="#p" />
<use x="120" y="520" xlink:href="#p" />
<use x="120" y="560" xlink:href="#p" />
<use x="120" y="600" xlink:href="#p" />
<use x="120" y="640" xlink:href="#p" />
<use x="120" y="680" xlink:href="#p" />
<use x="120" y="760" xlink:href="#p" />
<use x="120" y="800" xlink:href="#p" />
<use x="120" y="880" xlink:href="#p" />
<use x="120" y="920" xlink:href="#p" />
<use x="120" y="960" xlink:href="#p" />
<use x="120" y="1040" xlink:href="#p" />
<use x="120" y="1120" xlink:href="#p" />
<use x="120" y="1360" xlink:href="#p" />
<use x="160" y="80" xlink:href="#p" />
<use x="160" y="160" xlink:href="#p" />
<use x="160" y="200" xlink:href="#p" />
<use x="160" y="240" xlink:href="#p" />
<use x="160" y="320" xlink:href="#p" />
<use x="160" y="400" xlink:href="#p" />
<use x="160" y="520" xlink:href="#p" />
<use x="160" y="640" xlink:href="#p" />
<use x="160" y="760" xlink:href="#p" />
<use x="160" y="920" xlink:href="#p" />
<use x="160" y="960" xlink:href="#p" />
<use x="160" y="1040" xlink:href="#p" />
<use x="160" y="1120" xlink:href="#p" />
<use x="160" y="1200" xlink:href="#p" />
<use x="160" y="1240" xlink:href="#p" />
<use x="160" y="1280" xlink:href="#p" />
<use x="160" y="1360" xlink:href="#p" />
<use x="200" y="80" xlink:href="#p" />
<use x="200" y="160" xlink:href="#p" />
<use x="200" y="200" xlink:href="#p" />
<use x="200" y="240" xlink:href="#p" />
<use x="200" y="320" xlink:href="#p" />
<use x="200" y="400" xlink:href="#p" />
<use x="200" y="480" xlink:href="#p" />
<use x="200" y="520" xlink:href="#p" />
<use x="200" y="640" xlink:href="#p" />
<use x="200" y="760" xlink:href="#p" />
<use x="200" y="880" xlink:href="#p" />
<use x="200" y="920" xlink:href="#p" />
<use x="200" y="960" xlink:href="#p" />
<use x="200" y="1000" xlink:href="#p" />
<use x="200" y="1040" xlink:href="#p" />
<use x="200" y="1120" xlink:href="#p" />
<use x="200" y="1200" xlink:href="#p" />
<use x="200" y="1240" xlink:href="#p" />
<use x="200" y="1280" xlink:href="#p" />
<use x="200" y="1360" xlink:href="#p" />
<use x="240" y="80" xlink:href="#p" />
<use x="240" y="160" xlink:href="#p" />
<use x="240" y="200" xlink:href="#p" />
<use x="240" y="240" xlink:href="#p" />
<use x="240" y="320" xlink:href="#p" />
<use x="240" y="440" xlink:href="#p" />
<use x="240" y="520" xlink:href="#p" />
<use x="240" y="600" xlink:href="#p" />
<use x="240" y="880" xlink:href="#p" />
<use x="240" y="960" xlink:href="#p" />
<use x="240" y="1120" xlink:href="#p" />
<use x="240" y="1200" xlink:href="#p" />
<use x="240" y="1240" xlink:href="#p" />
<use x="240" y="1280" xlink:href="#p" />
<use x="240" y="1360" xlink:href="#p" />
<use x="280" y="80" xlink:href="#p" />
<use x="280" y="320" xlink:href="#p" />
<use x="280" y="440" xlink:href="#p" />
<use x="280" y="520" xlink:href="#p" />
<use x="280" y="640" xlink:href="#p" />
<use x="280" y="720" xlink:href="#p" />
<use x="280" y="760" xlink:href="#p" />
<use x="280" y="800" xlink:href="#p" />
<use x="280" y="880" xlink:href="#p" />
<use x="280" y="960" xlink:href="#p" />
<use x="280" y="1120" xlink:href="#p" />
<use x="280" y="1360" xlink:href="#p" />
<use x="320" y="80" xlink:href="#p" />
<use x="320" y="120" xlink:href="#p" />
<use x="320" y="160" xlink:href="#p" />
<use x="320" y="200" xlink:href="#p" />
<use x="320" y="240" xlink:href="#p" />
<use x="320" y="280" xlink:href="#p" />
<use x="320" y="320" xlink:href="#p" />
<use x="320" y="400" xlink:href="#p" />
<use x="320" y="480" xlink:href="#p" />
<use x="320" y="560" xlink:href="#p" />
<use x="320" y="640" xlink:href="#p" />
<use x="320" y="720" xlink:href="#p" />
<use x="320" y="800" xlink:href="#p" />
<use x="320" y="880" xlink:href="#p" />
<use x="320" y="960" xlink:href="#p" />
<use x="320" y="1040" xlink:href="#p" />
<use x="320" y="1120" xlink:href="#p" />
<use x="320" y="1160" xlink:href="#p" />
<use x="320" y="1200" xlink:href="#p" />
<use x="320" y="1240" xlink:href="#p" />
<use x="320" y="1280" xlink:href="#p" />
<use x="320" y="1320" xlink:href="#p" />
<use x="320" y="1360" xlink:href="#p" />
<use x="360" y="480" xlink:href="#p" />
<use x="360" y="560" xlink:href="#p" />
<use x="360" y="600" xlink:href="#p" />
<use x="360" y="640" xlink:href="#p" />
<use x="360" y="760" xlink:href="#p" />
<use x="360" y="840" xlink:href="#p" />
<use x="360" y="920" xlink:href="#p" />
<use x="400" y="80" xlink:href="#p" />
<use x="400" y="160" xlink:href="#p" />
<use x="400" y="200" xlink:href="#p" />
<use x="400" y="240" xlink:href="#p" />
<use x="400" y="320" xlink:href="#p" />
<use x="400" y="400" xlink:href="#p" />
<use x="400" y="440" xlink:href="#p" />
<use x="400" y="520" xlink:href="#p" />
<use x="400" y="560" xlink:href="#p" />
<use x="400" y="600" xlink:href="#p" />
<use x="400" y="720" xlink:href="#p" />
<use x="400" y="840" xlink:href="#p" />
<use x="400" y="880" xlink:href="#p" />
<use x="400" y="1000" xlink:href="#p" />
<use x="400" y="1080" xlink:href="#p" />
<use x="400" y="1240" xlink:href="#p" />
<use x="400" y="1280" xlink:href="#p" />
<use x="400" y="1320" xlink:href="#p" />
<use x="400" y="1360" xlink:href="#p" />
<use x="440" y="80" xlink:href="#p" />
<use x="440" y="200" xlink:href="#p" />
<use x="440" y="240" xlink:href="#p" />
<use x="440" y="280" xlink:href="#p" />
<use x="440" y="360" xlink:href="#p" />
<use x="440" y="440" xlink:href="#p" />
<use x="440" y="560" xlink:href="#p" />
<use x="440" y="600" xlink:href="#p" />
<use x="440" y="680" xlink:href="#p" />
<use x="440" y="760" xlink:href="#p" />
<use x="440" y="840" xlink:href="#p" />
<use x="440" y="880" xlink:href="#p" />
<use x="440" y="1040" xlink:href="#p" />
<use x="440" y="1200" xlink:href="#p" />
<use x="440" y="1360" xlink:href="#p" />
<use x="480" y="240" xlink:href="#p" />
<use x="480" y="320" xlink:href="#p" />
<use x="480" y="600" xlink:href="#p" />
<use x="480" y="760" xlink:href="#p" />
<use x="480" y="800" xlink:href="#p" />
<use x="480" y="920" xlink:href="#p" />
<use x="480" y="960" xlink:href="#p" />
<use x="480" y="1240" xlink:href="#p" />
<use x="480" y="1280" xlink:href="#p" />
<use x="480" y="1320" xlink:href="#p" />
<use x="520" y="160" xlink:href="#p" />
<use x="520" y="200" xlink:href="#p" />
<use x="520" y="240" xlink:href="#p" />
<use x="520" y="360" xlink:href="#p" />
<use x="520" y="520" xlink:href="#p" />
<use x="520" y="560" xlink:href="#p" />
<use x="520" y="600" xlink:href="#p" />
<use x="520" y="720" xlink:href="#p" />
<use x="520" y="800" xlink:href="#p" />
<use x="520" y="880" xlink:href="#p" />
<use x="520" y="960" xlink:href="#p" />
<use x="520" y="1080" xlink:href="#p" />
<use x="520" y="1120" xlink:href="#p" />
<use x="520" y="1160" xlink:href="#p" />
<use x="520" y="1320" xlink:href="#p" />
<use x="560" y="160" xlink:href="#p" />
<use x="560" y="280" xlink:href="#p" />
<use x="560" y="320" xlink:href="#p" />
<use x="560" y="520" xlink:href="#p" />
<use x="560" y="640" xlink:href="#p" />
<use x="560" y="680" xlink:href="#p" />
<use x="560" y="760" xlink:href="#p" />
<use x="560" y="800" xlink:href="#p" />
<use x="560" y="840" xlink:href="#p" />
<use x="560" y="880" xlink:href="#p" />
<use x="560" y="920" xlink:href="#p" />
<use x="560" y="960" xlink:href="#p" />
<use x="560" y="1040" xlink:href="#p" />
<use x="560" y="1080" xlink:href="#p" />
<use x="560" y="1200" xlink:href="#p" />
<use x="600" y="160" xlink:href="#p" />
<use x="600" y="240" xlink:href="#p" />
<use x="600" y="360" xlink:href="#p" />
<use x="600" y="400" xlink:href="#p" />
<use x="600" y="520" xlink:href="#p" />
<use x="600" y="600" xlink:href="#p" />
<use x="600" y="680" xlink:href="#p" />
<use x="600" y="760" xlink:href="#p" />
<use x="600" y="880" xlink:href="#p" />
<use x="600" y="920" xlink:href="#p" />
<use x="600" y="960" xlink:href="#p" />
<use x="600" y="1120" xlink:href="#p" />
<use x="600" y="1280" xlink:href="#p" />
<use x="600" y="1320" xlink:href="#p" />
<use x="600" y="1360" xlink:href="#p" />
<use x="640" y="120" xlink:href="#p" />
<use x="640" y="160" xlink:href="#p" />
<use x="640" y="280" xlink:href="#p" />
<use x="640" y="320" xlink:href="#p" />
<use x="640" y="360" xlink:href="#p" />
<use x="640" y="400" xlink:href="#p" />
<use x="640" y="480" xlink:href="#p" />
<use x="640" y="520" xlink:href="#p" />
<use x="640" y="640" xlink:href="#p" />
<use x="640" y="920" xlink:href="#p" />
<use x="640" y="1040" xlink:href="#p" />
<use x="640" y="1080" xlink:href="#p" />
<use x="640" y="1160" xlink:href="#p" />
<use x="640" y="1200" xlink:href="#p" />
<use x="640" y="1240" xlink:href="#p" />
<use x="640" y="1280" xlink:href="#p" />
<use x="640" y="1320" xlink:href="#p" />
<use x="640" y="1360" xlink:href="#p" />
<use x="680" y="80" xlink:href="#p" />
<use x="680" y="120" xlink:href="#p" />
<use x="680" y="160" xlink:href="#p" />
<use x="680" y="600" xlink:href="#p" />
<use x="680" y="680" xlink:href="#p" />
<use x="680" y="720" xlink:href="#p" />
<use x="680" y="760" xlink:href="#p" />
<use x="680" y="800" xlink:href="#p" />
<use x="680" y="840" xlink:href="#p" />
<use x="680" y="1000" xlink:href="#p" />
<use x="680" y="1040" xlink:href="#p" />
<use x="680" y="1080" xlink:href="#p" />
<use x="680" y="1200" xlink:href="#p" />
<use x="680" y="1240" xlink:href="#p" />
<use x="680" y="1280" xlink:href="#p" />
<use x="680" y="1360" xlink:href="#p" />
<use x="720" y="80" xlink:href="#p" />
<use x="720" y="320" xlink:href="#p" />
<use x="720" y="360" xlink:href="#p" />
<use x="720" y="400" xlink:href="#p" />
<use x="720" y="440" xlink:href="#p" />
<use x="720" y="600" xlink:href="#p" />
<use x="720" y="840" xlink:href="#p" />
<use x="720" y="880" xlink:href="#p" />
<use x="720" y="920" xlink:href="#p" />
<use x="720" y="960" xlink:href="#p" />
<use x="720" y="1000" xlink:href="#p" />
<use x="720" y="1040" xlink:href="#p" />
<use x="720" y="1080" xlink:href="#p" />
<use x="720" y="1120" xlink:href="#p" />
<use x="720" y="1160" xlink:href="#p" />
<use x="720" y="1280" xlink:href="#p" />
<use x="720" y="1360" xlink:href="#p" />
<use x="760" y="120" xlink:href="#p" />
<use x="760" y="200" xlink:href="#p" />
<use x="760" y="240" xlink:href="#p" />
<use x="760" y="360" xlink:href="#p" />
<use x="760" y="400" xlink:href="#p" />
<use x="760" y="560" xlink:href="#p" />
<use x="760" y="640" xlink:href="#p" />
<use x="760" y="720" xlink:href="#p" />
<use x="760" y="760" xlink:href="#p" />
<use x="760" y="800" xlink:href="#p" />
<use x="760" y="840" xlink:href="#p" />
<use x="760" y="880" xlink:href="#p" />
<use x="760" y="960" xlink:href="#p" />
<use x="760" y="1040" xlink:href="#p" />
<use x="760" y="1120" xlink:href="#p" />
<use x="760" y="1240" xlink:href="#p" />
<use x="760" y="1280" xlink:href="#p" />
<use x="760" y="1320" xlink:href="#p" />
<use x="760" y="1360" xlink:href="#p" />
<use x="800" y="120" xlink:href="#p" />
<use x="800" y="280" xlink:href="#p" />
<use x="800" y="320" xlink:href="#p" />
<use x="800" y="360" xlink:href="#p" />
<use x="800" y="400" xlink:href="#p" />
<use x="800" y="560" xlink:href="#p" />
<use x="800" y="640" xlink:href="#p" />
<use x="800" y="720" xlink:href="#p" />
<use x="800" y="800" xlink:href="#p" />
<use x="800" y="880" xlink:href="#p" />
<use x="800" y="920" xlink:href="#p" />
<use x="800" y="960" xlink:href="#p" />
<use x="800" y="1000" xlink:href="#p" />
<use x="800" y="1120" xlink:href="#p" />
<use x="800" y="1160" xlink:href="#p" />
<use x="800" y="1200" xlink:href="#p" />
<use x="800" y="1280" xlink:href="#p" />
<use x="800" y="1320" xlink:href="#p" />
<use x="800" y="1360" xlink:href="#p" />
<use x="840" y="80" xlink:href="#p" />
<use x="840" y="240" xlink:href="#p" />
<use x="840" y="280" xlink:href="#p" />
<use x="840" y="400" xlink:href="#p" />
<use x="840" y="440" xlink:href="#p" />
<use x="840" y="520" xlink:href="#p" />
<use x="840" y="560" xlink:href="#p" />
<use x="840" y="600" xlink:href="#p" />
<use x="840" y="640" xlink:href="#p" />
<use x="840" y="680" xlink:href="#p" />
<use x="840" y="720" xlink:href="#p" />
<use x="840" y="840" xlink:href="#p" />
<use x="840" y="880" xlink:href="#p" />
<use x="840" y="920" xlink:href="#p" />
<use x="840" y="1040" xlink:href="#p" />
<use x="840" y="1080" xlink:href="#p" />
<use x="840" y="1120" xlink:href="#p" />
<use x="840" y="1200" xlink:href="#p" />
<use x="840" y="1320" xlink:href="#p" />
<use x="840" y="1360" xlink:href="#p" />
<use x="880" y="80" xlink:href="#p" />
<use x="880" y="200" xlink:href="#p" />
<use x="880" y="280" xlink:href="#p" />
<use x="880" y="320" xlink:href="#p" />
<use x="880" y="360" xlink:href="#p" />
<use x="880" y="440" xlink:href="#p" />
<use x="880" y="520" xlink:href="#p" />
<use x="880" y="640" xlink:href="#p" />
<use x="880" y="680" xlink:href="#p" />
<use x="880" y="720" xlink:href="#p" />
<use x="880" y="840" xlink:href="#p" />
<use x="880" y="920" xlink:href="#p" />
<use x="880" y="1000" xlink:href="#p" />
<use x="880" y="1160" xlink:href="#p" />
<use x="880" y="1200" xlink:href="#p" />
<use x="880" y="1240" xlink:href="#p" />
<use x="880" y="1320" xlink:href="#p" />
<use x="920" y="80" xlink:href="#p" />
<use x="920" y="120" xlink:href="#p" />
<use x="920" y="240" xlink:href="#p" />
<use x="920" y="400" xlink:href="#p" />
<use x="920" y="440" xlink:href="#p" />
<use x="920" y="640" xlink:href="#p" />
<use x="920" y="680" xlink:href="#p" />
<use x="920" y="720" xlink:href="#p" />
<use x="920" y="880" xlink:href="#p" />
<use x="920" y="920" xlink:href="#p" />
<use x="920" y="1120" xlink:href="#p" />
<use x="920" y="1160" xlink:href="#p" />
<use x="920" y="1200" xlink:href="#p" />
<use x="920" y="1240" xlink:href="#p" />
<use x="920" y="1360" xlink:href="#p" />
<use x="960" y="200" xlink:href="#p" />
<use x="960" y="280" xlink:href="#p" />
<use x="960" y="320" xlink:href="#p" />
<use x="960" y="480" xlink:href="#p" />
<use x="960" y="560" xlink:href="#p" />
<use x="960" y="600" xlink:href="#p" />
<use x="960" y="640" xlink:href="#p" />
<use x="960" y="680" xlink:href="#p" />
<use x="960" y="720" xlink:href="#p" />
<use x="960" y="840" xlink:href="#p" />
<use x="960" y="960" xlink:href="#p" />
<use x="960" y="1000" xlink:href="#p" />
<use x="960" y="1040" xlink:href="#p" />
<use x="960" y="1120" xlink:href="#p" />
<use x="960" y="1240" xlink:href="#p" />
<use x="960" y="1280" xlink:href="#p" />
<use x="960" y="1320" xlink:href="#p" />
<use x="1000" y="80" xlink:href="#p" />
<use x="1000" y="120" xlink:href="#p" />
<use x="1000" y="160" xlink:href="#p" />
<use x="1000" y="200" xlink:href="#p" />
<use x="1000" y="360" xlink:href="#p" />
<use x="1000" y="400" xlink:href="#p" />
<use x="1000" y="440" xlink:href="#p" />
<use x="1000" y="480" xlink:href="#p" />
<use x="1000" y="520" xlink:href="#p" />
<use x="1000" y="680" xlink:href="#p" />
<use x="1000" y="720" xlink:href="#p" />
<use x="1000" y="760" xlink:href="#p" />
<use x="1000" y="840" xlink:href="#p" />
<use x="1000" y="880" xlink:href="#p" />
<use x="1000" y="920" xlink:href="#p" />
<use x="1000" y="960" xlink:href="#p" />
<use x="1000" y="1040" xlink:href="#p" />
<use x="1000" y="1080" xlink:href="#p" />
<use x="1000" y="1120" xlink:href="#p" />
<use x="1000" y="1160" xlink:href="#p" />
<use x="1000" y="1200" xlink:href="#p" />
<use x="1000" y="1240" xlink:href="#p" />
<use x="1000" y="1280" xlink:href="#p" />
<use x="1000" y="1320" xlink:href="#p" />
<use x="1000" y="1360" xlink:href="#p" />
<use x="1040" y="120" xlink:href="#p" />
<use x="1040" y="160" xlink:href="#p" />
<use x="1040" y="200" xlink:href="#p" />
<use x="1040" y="280" xlink:href="#p" />
<use x="1040" y="320" xlink:href="#p" />
<use x="1040" y="600" xlink:href="#p" />
<use x="1040" y="680" xlink:href="#p" />
<use x="1040" y="760" xlink:href="#p" />
<use x="1040" y="1000" xlink:href="#p" />
<use x="1040" y="1040" xlink:href="#p" />
<use x="1040" y="1080" xlink:href="#p" />
<use x="1040" y="1120" xlink:href="#p" />
<use x="1040" y="1160" xlink:href="#p" />
<use x="1040" y="1200" xlink:href="#p" />
<use x="1040" y="1240" xlink:href="#p" />
<use x="1040" y="1320" xlink:href="#p" />
<use x="1080" y="400" xlink:href="#p" />
<use x="1080" y="560" xlink:href="#p" />
<use x="1080" y="680" xlink:href="#p" />
<use x="1080" y="720" xlink:href="#p" />
<use x="1080" y="760" xlink:href="#p" />
<use x="1080" y="800" xlink:href="#p" />
<use x="1080" y="840" xlink:href="#p" />
<use x="1080" y="880" xlink:href="#p" />
<use x="1080" y="960" xlink:href="#p" />
<use x="1080" y="1040" xlink:href="#p" />
<use x="1080" y="1200" xlink:href="#p" />
<use x="1120" y="80" xlink:href="#p" />
<use x="1120" y="120" xlink:href="#p" />
<use x="1120" y="160" xlink:href="#p" />
<use x="1120" y="200" xlink:href="#p" />
<use x="1120" y="240" xlink:href="#p" />
<use x="1120" y="280" xlink:href="#p" />
<use x="1120" y="320" xlink:href="#p" />
<use x="1120" y="440" xlink:href="#p" />
<use x="1120" y="480" xlink:href="#p" />
<use x="1120" y="520" xlink:href="#p" />
<use x="1120" y="640" xlink:href="#p" />
<use x="1120" y="680" xlink:href="#p" />
<use x="1120" y="720" xlink:href="#p" />
<use x="1120" y="760" xlink:href="#p" />
<use x="1120" y="800" xlink:href="#p" />
<use x="1120" y="840" xlink:href="#p" />
<use x="1120" y="920" xlink:href="#p" />
<use x="1120" y="1000" xlink:href="#p" />
<use x="1120" y="1040" xlink:href="#p" />
<use x="1120" y="1120" xlink:href="#p" />
<use x="1120" y="1200" xlink:href="#p" />
<use x="1120" y="1280" xlink:href="#p" />
<use x="1120" y="1360" xlink:href="#p" />
<use x="1160" y="80" xlink:href="#p" />
<use x="1160" y="320" xlink:href="#p" />
<use x="1160" y="520" xlink:href="#p" />
<use x="1160" y="560" xlink:href="#p" />
<use x="1160" y="680" xlink:href="#p" />
<use x="1160" y="760" xlink:href="#p" />
<use x="1160" y="840" xlink:href="#p" />
<use x="1160" y="880" xlink:href="#p" />
<use x="1160" y="1040" xlink:href="#p" />
<use x="1160" y="1200" xlink:href="#p" />
<use x="1160" y="1360" xlink:href="#p" />
<use x="1200" y="80" xlink:href="#p" />
<use x="1200" y="160" xlink:href="#p" />
<use x="1200" y="200" xlink:href="#p" />
<use x="1200" y="240" xlink:href="#p" />
<use x="1200" y="320" xlink:href="#p" />
<use x="1200" y="400" xlink:href="#p" />
<use x="1200" y="480" xlink:href="#p" />
<use x="1200" y="560" xlink:href="#p" />
<use x="1200" y="720" xlink:href="#p" />
<use x="1200" y="760" xlink:href="#p" />
<use x="1200" y="1040" xlink:href="#p" />
<use x="1200" y="1080" xlink:href="#p" />
<use x="1200" y="1120" xlink:href="#p" />
<use x="1200" y="1160" xlink:href="#p" />
<use x="1200" y="1200" xlink:href="#p" />
<use x="1200" y="1360" xlink:href="#p" />
<use x="1240" y="80" xlink:href="#p" />
<use x="1240" y="160" xlink:href="#p" />
<use x="1240" y="200" xlink:href="#p" />
<use x="1240" y="240" xlink:href="#p" />
<use x="1240" y="320" xlink:href="#p" />
<use x="1240" y="400" xlink:href="#p" />
<use x="1240" y="560" xlink:href="#p" />
<use x="1240" y="600" xlink:href="#p" />
<use x="1240" y="720" xlink:href="#p" />
<use x="1240" y="760" xlink:href="#p" />
<use x="1240" y="800" xlink:href="#p" />
<use x="1240" y="840" xlink:href="#p" />
<use x="1240" y="920" xlink:href="#p" />
<use x="1240" y="1000" xlink:href="#p" />
<use x="1240" y="1120" xlink:href="#p" />
<use x="1240" y="1160" xlink:href="#p" />
<use x="1240" y="1200" xlink:href="#p" />
<use x="1240" y="1280" xlink:href="#p" />
<use x="1240" y="1360" xlink:href="#p" />
<use x="1280" y="80" xlink:href="#p" />
<use x="1280" y="160" xlink:href="#p" />
<use x="1280" y="200" xlink:href="#p" />
<use x="1280" y="240" xlink:href="#p" />
<use x="1280" y="320" xlink:href="#p" />
<use x="1280" y="400" xlink:href="#p" />
<use x="1280" y="440" xlink:href="#p" />
<use x="1280" y="480" xlink:href="#p" />
<use x="1280" y="600" xlink:href="#p" />
<use x="1280" y="640" xlink:href="#p" />
<use x="1280" y="680" xlink:href="#p" />
<use x="1280" y="720" xlink:href="#p" />
<use x="1280" y="760" xlink:href="#p" />
<use x="1280" y="880" xlink:href="#p" />
<use x="1280" y="960" xlink:href="#p" />
<use x="1280" y="1120" xlink:href="#p" />
<use x="1280" y="1160" xlink:href="#p" />
<use x="1280" y="1200" xlink:href="#p" />
<use x="1280" y="1240" xlink:href="#p" />
<use x="1280" y="1280" xlink:href="#p" />
<use x="1280" y="1360" xlink:href="#p" />
<use x="1320" y="80" xlink:href="#p" />
<use x="1320" y="320" xlink:href="#p" />
<use x="1320" y="440" xlink:href="#p" />
<use x="1320" y="480" xlink:href="#p" />
<use x="1320" y="520" xlink:href="#p" />
<use x="1320" y="600" xlink:href="#p" />
<use x="1320" y="720" xlink:href="#p" />
<use x="1320" y="800" xlink:href="#p" />
<use x="1320" y="920" xlink:href="#p" />
<use x="1320" y="960" xlink:href="#p" />
<use x="1320" y="1000" xlink:href="#p" />
<use x="1360" y="80" xlink:href="#p" />
<use x="1360" y="120" xlink:href="#p" />
<use x="1360" y="160" xlink:href="#p" />
<use x="1360" y="200" xlink:href="#p" />
<use x="1360" y="240" xlink:href="#p" />
<use x="1360" y="280" xlink:href="#p" />
<use x="1360" y="320" xlink:href="#p" />
<use x="1360" y="400" xlink:href="#p" />
<use x="1360" y="440" xlink:href="#p" />
<use x="1360" y="480" xlink:href="#p" />
<use x="1360" y="720" xlink:href="#p" />
<use x="1360" y="760" xlink:href="#p" />
<use x="1360" y="840" xlink:href="#p" />
<use x="1360" y="920" xlink:href="#p" />
<use x="1360" y="960" xlink:href="#p" />
<use x="1360" y="1040" xlink:href="#p" />
<use x="1360" y="1160" xlink:href="#p" />
<use x="1360" y="1240" xlink:href="#p" />
<use x="1360" y="1320" xlink:href="#p" />
</g>

</svg>